<?xml version="1.0" encoding="utf-8"?>
<!-- Generator: Adobe Illustrator 19.0.0, SVG Export Plug-In . SVG Version: 6.00 Build 0)  -->
<svg version="1.1" id="Layer_1" xmlns="http://www.w3.org/2000/svg" xmlns:xlink="http://www.w3.org/1999/xlink" x="0px" y="0px"
	 viewBox="-249 250 13 13" style="enable-background:new -249 250 13 13;" xml:space="preserve">
<style type="text/css">
	.st0{fill:#FFCE26;}
</style>
<title>Shape</title>
<desc>Created with Sketch.</desc>
<g id="Fullscreen">
	<g id="Payment-Options-1" transform="translate(-244.000000, -330.000000)">
		<path id="Shape" class="st0" d="M1.5,580c-3.6,0-6.5,2.9-6.5,6.5c0,3.6,2.9,6.5,6.5,6.5c3.6,0,6.5-2.9,6.5-6.5
			C8,582.9,5.1,580,1.5,580z M1.5,592.1c-1.6,0-3.1-0.7-4.1-1.8c0-0.1,0.3-0.9,0.5-1.3c0.2-0.4,0.3-0.4,0.7-0.8
			c0.4-0.4-0.9-0.6-1.2-0.9c-0.3-0.3-0.5-0.3-0.8-0.6c-0.3-0.2-0.4,0.7-0.5,1.2c-0.1-0.4-0.2-0.9-0.2-1.3c0-1.2,0.4-2.3,1-3.2
			c-0.2,0.6-0.3,1.4,0.4,1.1c0.8-0.3,0.8-0.6,0.8-0.6l0.4-0.8c0,0,0.1,1.1,0.2,1.2c0.1,0.2,0.4,0.6,0.6,0c0.2-1.1,0.3-1.5,0.7-1.5
			c0.4,0,1.3-0.3,1.4,0.7c0.1,1-0.1,0.4-0.6,0.7c-0.6,0.3-0.7,1.2-0.2,1.3c0.5,0.1,1.7,0.6,1.7,0.6l0.6,0.6l0.2,0.7
			c0,0,0.1,0.8,0.1,0.8v0.7c0,0,0,1.4,0.5,1.1c0.5-0.3,1.9-2.5,1.6-3.3c-0.3-0.8-0.3-0.9,0.2-1.2c0.5-0.3,0.9-0.6,0.9-1
			c0-0.3,0-0.5,0-0.6c0.4,0.8,0.7,1.7,0.7,2.7C7.1,589.6,4.6,592.1,1.5,592.1z"/>
	</g>
</g>
</svg>
