<?xml version="1.0" encoding="utf-8"?>
<!-- Generator: Adobe Illustrator 19.0.0, SVG Export Plug-In . SVG Version: 6.00 Build 0)  -->
<svg version="1.1" id="Layer_1" xmlns="http://www.w3.org/2000/svg" xmlns:xlink="http://www.w3.org/1999/xlink" x="0px" y="0px"
	 viewBox="-247.9 251.3 14.6 11.7" style="enable-background:new -247.9 251.3 14.6 11.7;" xml:space="preserve">
<style type="text/css">
	.st0{fill:#FFCE26;}
</style>
<title>Combined Shape</title>
<desc>Created with Sketch.</desc>
<g id="Fullscreen">
	<g id="Payment-Options-1" transform="translate(-244.000000, -386.000000)">
		<path id="Combined-Shape" class="st0" d="M-3,637.3H9.9c0.5,0,0.9,0.4,0.9,0.9v3.5L9.8,642l0-2.9c0-0.5-0.4-0.9-0.9-0.9H-2.6
			c-0.4,0-0.4,0.6,0,0.6H8.9c0.2,0,0.3,0.1,0.3,0.3l0,3.1H6.5c-0.8,0-1.5,0.7-1.5,1.5c0,0.9,0.7,1.5,1.5,1.5h2.7l0,2.8
			c0,0.5-0.4,0.9-0.9,0.9H-3c-0.5,0-0.9-0.4-0.9-0.9v-9.9C-3.9,637.7-3.5,637.3-3,637.3L-3,637.3z M10.8,642.3l-1.1,0.4
			c0,0-0.1,0-0.1,0h-3c-0.5,0-0.9,0.4-0.9,0.9c0,0.5,0.4,0.9,0.9,0.9h3l1.3-0.5V642.3z M10.8,644.8v2.7c0,0.2-0.1,0.5-0.4,0.6h0
			l-0.7,0.4c0-0.1,0.1-0.2,0.1-0.4l0-2.9L10.8,644.8z M6.5,643.4C6.5,643.4,6.5,643.4,6.5,643.4c0.2,0,0.3,0.1,0.3,0.3
			S6.7,644,6.5,644s-0.3-0.1-0.3-0.3C6.2,643.6,6.3,643.4,6.5,643.4L6.5,643.4z"/>
	</g>
</g>
</svg>
